# xmcd
# 
# Track frame offsets:
#     187
#     21442
#     45800
#     81762
#     99157
#     117557
# 
# Disc length: 2392
# 
# Revision: 1
# Processed by: cddbd v1.5.2PL0 Copyright (c) Steve Scherf et al.
# Submitted via: BonkEnc v1.0.8
# 
DISCID=3d095606
DTITLE=山下洋輔, 坂田明, 森山威男 - Chiasma
DYEAR=1976
DGENRE=Free, Avant
TTITLE0=Double Helix
TTITLE1=Nita
TTITLE2=Chiasma
TTITLE3=Horse Trip
TTITLE4=Intoro Hachi
TTITLE5=Hachi
EXTD=YEAR: 1976
EXTT0=
EXTT1=
EXTT2=
EXTT3=
EXTT4=
EXTT5=
PLAYORDER=
